<svg width="1200" height="176" viewBox="0 0 1200 176" fill="none" xmlns="http://www.w3.org/2000/svg">
<path d="M49.6406 5.32031C49.6406 3.88802 50.4219 2.71615 51.9844 1.80469C53.6771 0.763021 55.4349 0.242188 57.2578 0.242188C58.8203 0.242188 60.2526 0.567708 61.5547 1.21875C62.8568 1.73958 63.7031 2.71615 64.0938 4.14844C64.4844 8.70573 64.6797 13.5885 64.6797 18.7969C64.8099 23.875 64.875 28.8229 64.875 33.6406C69.9531 33.6406 74.901 33.5104 79.7188 33.25C84.5365 32.8594 88.8333 32.4036 92.6094 31.8828C94.0417 31.8828 95.1484 32.6641 95.9297 34.2266C96.8411 35.7891 97.2969 37.5469 97.2969 39.5C97.2969 40.8021 96.9062 42.1042 96.125 43.4062C95.3438 44.5781 94.0417 45.2943 92.2188 45.5547C90.0052 45.9453 87.1406 46.2708 83.625 46.5312C80.1094 46.6615 76.2031 46.8568 71.9062 47.1172C67.7396 47.2474 63.3125 47.3776 58.625 47.5078C54.0677 47.5078 49.6406 47.5078 45.3438 47.5078C39.875 47.5078 35.2526 47.5078 31.4766 47.5078C27.8307 47.3776 24.8359 47.1172 22.4922 46.7266C20.2786 46.2057 18.651 45.4896 17.6094 44.5781C16.5677 43.5365 16.0469 42.0391 16.0469 40.0859C16.0469 38.1328 16.5677 36.5703 17.6094 35.3984C18.7812 34.0964 20.2135 33.4453 21.9062 33.4453C26.3333 33.8359 31.9323 34.0312 38.7031 34.0312C40.526 34.0312 42.4141 34.0312 44.3672 34.0312C46.3203 33.901 48.3385 33.8359 50.4219 33.8359C50.4219 31.4922 50.3568 29.0182 50.2266 26.4141C50.2266 23.8099 50.1615 21.2708 50.0312 18.7969C49.901 16.1927 49.7708 13.7188 49.6406 11.375C49.6406 9.03125 49.6406 7.01302 49.6406 5.32031ZM54.5234 60.5938C55.9557 58.901 57.7135 58.0547 59.7969 58.0547C62.5312 58.0547 65.2005 58.7057 67.8047 60.0078C70.4089 61.1797 72.6875 62.7422 74.6406 64.6953C76.724 66.6484 78.3516 68.9271 79.5234 71.5312C80.6953 74.1354 81.2812 76.8047 81.2812 79.5391C81.2812 84.0964 80.3698 87.8724 78.5469 90.8672C76.8542 93.862 74.7057 96.2708 72.1016 98.0938C69.4974 99.7865 66.763 100.958 63.8984 101.609C61.0339 102.26 58.4948 102.586 56.2812 102.586C53.4167 102.586 50.6172 102.13 47.8828 101.219C45.1484 100.307 42.7396 98.9401 40.6562 97.1172C38.5729 95.2943 36.8802 93.0807 35.5781 90.4766C34.4062 87.7422 33.8203 84.5521 33.8203 80.9062C33.8203 76.6094 35.0573 72.4427 37.5312 68.4062C40.0052 64.3698 43.5208 61.3099 48.0781 59.2266C48.3385 59.0964 48.599 59.0312 48.8594 59.0312C49.1198 58.901 49.4453 58.8359 49.8359 58.8359C50.487 58.8359 51.2031 59.0312 51.9844 59.4219C52.7656 59.6823 53.612 60.0729 54.5234 60.5938ZM56.0859 70.3594C53.7422 71.9219 51.7891 73.3542 50.2266 74.6562C48.7943 75.9583 48.0781 78.3672 48.0781 81.8828C48.0781 84.3568 48.8594 86.4401 50.4219 88.1328C52.1146 89.8255 54.3281 90.6719 57.0625 90.6719C57.7135 90.6719 58.625 90.4766 59.7969 90.0859C61.099 89.6953 62.3359 89.1094 63.5078 88.3281C64.6797 87.5469 65.6562 86.5703 66.4375 85.3984C67.349 84.2266 67.8047 82.7943 67.8047 81.1016C67.8047 79.0182 67.4141 77.3906 66.6328 76.2188C65.9818 74.9167 65.0703 73.9401 63.8984 73.2891C62.8568 72.5078 61.6198 71.9219 60.1875 71.5312C58.7552 71.1406 57.388 70.75 56.0859 70.3594ZM6.67188 111.57C12.6615 112.872 19.8229 113.784 28.1562 114.305C36.6198 114.826 45.5391 115.086 54.9141 115.086C64.0286 115.086 73.1432 114.695 82.2578 113.914C91.5026 113.003 100.031 111.831 107.844 110.398C109.406 108.836 111.099 107.794 112.922 107.273C114.875 106.622 116.828 105.841 118.781 104.93C120.344 105.32 121.711 106.492 122.883 108.445C124.185 110.268 124.836 112.221 124.836 114.305C124.836 116.128 124.445 117.755 123.664 119.188C122.883 120.62 121.516 121.596 119.562 122.117C115.135 123.159 110.513 124.135 105.695 125.047C101.008 125.958 96.125 126.544 91.0469 126.805C91.0469 130.06 90.9818 133.771 90.8516 137.938C90.8516 141.974 90.7865 146.076 90.6562 150.242C90.6562 154.279 90.5911 158.12 90.4609 161.766C90.4609 165.411 90.3958 168.471 90.2656 170.945C89.875 172.638 88.8984 173.745 87.3359 174.266C85.9036 174.786 84.276 175.047 82.4531 175.047C80.7604 174.786 79.1328 174.201 77.5703 173.289C76.138 172.508 75.4219 171.336 75.4219 169.773C75.5521 168.081 75.6172 165.542 75.6172 162.156C75.6172 158.771 75.6823 155.125 75.8125 151.219L76.3984 128.172C72.2318 128.432 68.0651 128.628 63.8984 128.758C59.7318 128.888 55.5651 128.953 51.3984 128.953H44.1719C44.1719 132.339 44.1068 136.049 43.9766 140.086C43.9766 143.992 43.9115 147.898 43.7812 151.805C43.7812 155.711 43.7161 159.357 43.5859 162.742C43.5859 166.128 43.5208 168.862 43.3906 170.945C43 172.638 42.0234 173.745 40.4609 174.266C39.0286 174.786 37.401 175.047 35.5781 175.047C33.8854 174.786 32.2578 174.201 30.6953 173.289C29.263 172.508 28.5469 171.336 28.5469 169.773C28.6771 168.081 28.7422 165.542 28.7422 162.156C28.7422 158.901 28.8073 155.32 28.9375 151.414L29.5234 128.367C26.0078 128.367 22.4922 128.302 18.9766 128.172C15.4609 127.911 12.2708 127.456 9.40625 126.805C6.67188 126.154 4.39323 125.177 2.57031 123.875C0.877604 122.573 0.03125 120.685 0.03125 118.211C0.03125 116.388 0.617188 114.826 1.78906 113.523C2.96094 112.221 4.58854 111.57 6.67188 111.57ZM164.094 76.4141C168 76.6745 172.427 77.3255 177.375 78.3672C182.453 79.4089 187.206 80.776 191.633 82.4688C196.06 84.1615 199.771 86.2448 202.766 88.7188C205.76 91.1927 207.258 93.9922 207.258 97.1172C207.258 101.284 205.826 105.711 202.961 110.398C200.227 115.086 197.362 120.034 194.367 125.242C192.935 127.586 191.372 129.995 189.68 132.469C188.117 134.943 186.49 137.221 184.797 139.305C183.104 141.258 181.346 142.885 179.523 144.188C177.831 145.49 176.203 146.141 174.641 146.141C172.557 146.141 170.799 145.49 169.367 144.188C168.065 142.885 167.414 141.323 167.414 139.5C167.414 138.068 167.87 136.701 168.781 135.398C172.427 130.581 176.268 125.242 180.305 119.383C184.341 113.523 188.052 106.492 191.438 98.2891C188.964 97.1172 186.424 96.1406 183.82 95.3594C181.346 94.5781 178.807 93.862 176.203 93.2109L160.578 90.4766C158.625 90.2161 157.062 89.2396 155.891 87.5469C154.719 85.8542 154.133 84.0964 154.133 82.2734C154.133 80.8411 154.784 79.5391 156.086 78.3672C157.388 77.0651 159.471 76.4141 162.336 76.4141H164.094ZM235.188 59.6172C234.276 58.5755 233.82 57.3385 233.82 55.9062C233.82 53.9531 234.732 52.3255 236.555 51.0234C238.508 49.7214 240.396 49.0703 242.219 49.0703C243.911 49.0703 245.669 49.9167 247.492 51.6094C249.445 53.3021 251.268 55.3854 252.961 57.8594C254.654 60.2031 256.216 62.6771 257.648 65.2812C259.081 67.8854 260.188 70.0339 260.969 71.7266C261.359 76.9349 261.685 82.013 261.945 86.9609C262.206 91.9089 262.401 96.6615 262.531 101.219C267.609 101.349 272.948 101.414 278.547 101.414C284.276 101.414 289.094 101.414 293 101.414C294.953 101.674 296.255 102.521 296.906 103.953C297.557 105.385 297.883 106.948 297.883 108.641C297.622 110.333 296.906 111.896 295.734 113.328C294.562 114.76 293 115.477 291.047 115.477H262.727C262.596 120.555 262.336 125.372 261.945 129.93C261.685 134.487 261.359 138.914 260.969 143.211C260.578 145.685 259.536 147.443 257.844 148.484C256.151 149.396 254.393 149.852 252.57 149.852C250.747 149.852 249.12 149.396 247.688 148.484C246.385 147.573 245.734 146.206 245.734 144.383C245.734 138.133 245.995 131.622 246.516 124.852C247.036 118.081 247.297 110.984 247.297 103.562C247.297 98.4844 247.167 93.6016 246.906 88.9141C246.776 84.0964 246.385 79.4089 245.734 74.8516C244.302 72.3776 242.609 69.9688 240.656 67.625C238.703 65.151 236.88 62.4818 235.188 59.6172ZM373.859 27.9766C376.464 27.9766 379.654 28.1068 383.43 28.3672C387.206 28.4974 391.112 28.6927 395.148 28.9531C399.185 29.2135 403.091 29.5391 406.867 29.9297C410.773 30.1901 414.094 30.4505 416.828 30.7109C421.255 31.2318 424.185 32.6641 425.617 35.0078C427.049 37.2214 427.766 39.9557 427.766 43.2109C427.505 48.1589 427.375 53.4323 427.375 59.0312C427.375 64.6302 427.115 69.7734 426.594 74.4609C426.333 75.8932 425.422 77 423.859 77.7812C422.297 78.4323 420.604 78.7578 418.781 78.7578C417.089 78.7578 415.591 78.3672 414.289 77.5859C413.117 76.8047 412.531 75.5026 412.531 73.6797C412.531 70.1641 412.596 66.2578 412.727 61.9609C412.987 57.5339 413.052 53.4323 412.922 49.6562V44.3828C410.578 43.9922 407.648 43.6667 404.133 43.4062C400.617 43.0156 396.971 42.7552 393.195 42.625C389.419 42.3646 385.773 42.1693 382.258 42.0391C378.742 41.9089 375.812 41.7786 373.469 41.6484C371.906 41.6484 370.734 40.9323 369.953 39.5C369.172 38.0677 368.781 36.5052 368.781 34.8125C368.781 33.1198 369.172 31.5573 369.953 30.125C370.865 28.6927 372.167 27.9766 373.859 27.9766ZM459.406 23.2891C459.016 22.3776 458.82 21.4661 458.82 20.5547C458.82 18.4714 459.602 16.7786 461.164 15.4766C462.857 14.0443 464.745 13.3281 466.828 13.3281C468.391 13.3281 469.758 13.849 470.93 14.8906C472.102 15.8021 473.143 16.974 474.055 18.4062C474.966 19.8385 475.682 21.3359 476.203 22.8984C476.854 24.4609 477.44 25.8932 477.961 27.1953L480.891 37.7422C480.891 41.9089 480.826 45.8802 480.695 49.6562C480.565 53.4323 480.5 57.0781 480.5 60.5938H491.828L503.156 61.1797C504.849 61.4401 506.086 62.1562 506.867 63.3281C507.648 64.3698 508.039 65.6068 508.039 67.0391C508.039 68.862 507.388 70.5547 506.086 72.1172C504.784 73.6797 503.026 74.4609 500.812 74.4609C498.339 74.2005 495.995 74.0703 493.781 74.0703C491.568 74.0703 489.354 74.0703 487.141 74.0703H479.719C479.458 76.9349 479.198 79.7344 478.938 82.4688C478.677 85.0729 478.417 87.612 478.156 90.0859L476.594 105.32C476.203 107.404 475.292 108.966 473.859 110.008C472.557 110.919 470.995 111.375 469.172 111.375C467.219 111.375 465.331 110.854 463.508 109.812C461.685 108.771 460.773 107.208 460.773 105.125C460.773 104.995 460.773 104.865 460.773 104.734C460.904 104.604 460.969 104.409 460.969 104.148C462.271 93.0807 463.378 82.2083 464.289 71.5312C465.201 60.8542 465.656 50.2422 465.656 39.6953C464.615 37.4818 463.703 35.0078 462.922 32.2734C462.271 29.4089 461.099 26.4141 459.406 23.2891ZM363.703 98.6797C365.656 99.2005 368.326 99.4609 371.711 99.4609C372.622 99.4609 373.469 99.4609 374.25 99.4609C375.161 99.3307 376.073 99.2656 376.984 99.2656C376.333 96.1406 375.812 92.4297 375.422 88.1328C375.161 83.7057 375.031 79.4089 375.031 75.2422C375.031 73.4193 374.966 71.6615 374.836 69.9688C374.836 68.1458 375.031 66.5182 375.422 65.0859C375.812 63.6536 376.529 62.4818 377.57 61.5703C378.612 60.6589 380.24 60.2031 382.453 60.2031C384.146 60.2031 385.708 60.5286 387.141 61.1797C388.573 61.8307 389.484 62.8724 389.875 64.3047C389.745 66.388 389.615 68.4062 389.484 70.3594C389.484 72.3125 389.484 74.2005 389.484 76.0234C389.484 83.7057 390.135 91.1927 391.438 98.4844C397.036 98.0938 402.701 97.5729 408.43 96.9219C414.289 96.1406 419.562 95.2943 424.25 94.3828C424.51 94.3828 424.706 94.3828 424.836 94.3828C425.096 94.2526 425.357 94.1875 425.617 94.1875C427.44 94.1875 428.872 94.9036 429.914 96.3359C430.956 97.7682 431.477 99.2656 431.477 100.828C431.477 102.911 430.565 104.539 428.742 105.711C426.919 106.883 424.445 107.859 421.32 108.641C418.195 109.422 414.484 110.008 410.188 110.398C406.021 110.789 401.529 111.245 396.711 111.766C392.154 112.286 387.661 112.677 383.234 112.938C378.938 113.068 374.966 113.133 371.32 113.133C365.591 113.133 361.555 112.547 359.211 111.375C356.997 110.203 355.891 107.924 355.891 104.539C355.891 103.107 356.477 101.805 357.648 100.633C358.951 99.3307 360.513 98.6797 362.336 98.6797H363.703ZM409.797 126.805C409.797 124.461 410.578 122.833 412.141 121.922C413.703 121.01 415.461 120.555 417.414 120.555C419.758 120.555 421.451 121.336 422.492 122.898C423.664 124.461 424.445 126.284 424.836 128.367C425.227 130.32 425.357 132.339 425.227 134.422C425.227 136.505 425.227 138.068 425.227 139.109L426.984 150.633H430.305C433.43 150.633 436.88 150.503 440.656 150.242C444.432 149.852 448.273 149.461 452.18 149.07C456.086 148.549 459.927 148.029 463.703 147.508C467.609 146.857 471.255 146.206 474.641 145.555C476.203 145.555 477.57 146.531 478.742 148.484C480.044 150.307 480.695 152.13 480.695 153.953C480.695 156.688 479.458 158.445 476.984 159.227C472.688 160.398 468.065 161.31 463.117 161.961C458.299 162.742 453.547 163.328 448.859 163.719C444.172 164.109 439.745 164.37 435.578 164.5C431.411 164.63 427.896 164.695 425.031 164.695C421.125 164.695 418.13 163.589 416.047 161.375C413.964 159.292 412.661 156.492 412.141 152.977L410.383 140.086C410.253 138.133 410.122 136.115 409.992 134.031C409.862 131.948 409.797 129.539 409.797 126.805ZM528.156 75.2422C533.365 75.2422 539.094 75.3724 545.344 75.6328C551.594 75.8932 557.453 76.2839 562.922 76.8047C567.349 77.1953 570.214 78.5625 571.516 80.9062C572.818 83.25 573.469 86.0495 573.469 89.3047C573.208 94.3828 572.883 98.6797 572.492 102.195C572.232 105.711 571.646 108.576 570.734 110.789C569.823 113.003 568.586 114.695 567.023 115.867C565.461 117.039 563.312 117.82 560.578 118.211C557.974 118.862 555.24 119.253 552.375 119.383C549.641 119.513 547.167 119.773 544.953 120.164C542.74 120.555 540.917 121.206 539.484 122.117C538.052 123.029 537.336 124.526 537.336 126.609C537.336 130.125 537.661 132.664 538.312 134.227C538.964 135.789 539.81 136.831 540.852 137.352C542.023 137.872 543.26 138.068 544.562 137.938C545.865 137.677 547.102 137.547 548.273 137.547C552.049 137.547 556.216 137.221 560.773 136.57C565.461 135.789 571.385 134.487 578.547 132.664C578.677 132.664 578.807 132.664 578.938 132.664C579.068 132.534 579.198 132.469 579.328 132.469C580.76 132.469 581.997 133.315 583.039 135.008C584.211 136.701 584.797 138.458 584.797 140.281C584.797 142.755 583.169 144.708 579.914 146.141C576.659 147.573 572.948 148.68 568.781 149.461C564.615 150.242 560.578 150.763 556.672 151.023C552.896 151.154 550.357 151.219 549.055 151.219C544.237 151.219 540.135 150.958 536.75 150.438C533.495 149.917 530.76 148.745 528.547 146.922C526.464 145.099 524.901 142.365 523.859 138.719C522.948 134.943 522.492 129.799 522.492 123.289C522.492 118.862 523.143 115.281 524.445 112.547C525.878 109.682 529.068 108.055 534.016 107.664C537.01 107.534 539.94 107.404 542.805 107.273C545.799 107.143 548.469 106.818 550.812 106.297C553.156 105.646 555.044 104.799 556.477 103.758C557.909 102.586 558.625 101.023 558.625 99.0703V90.4766C553.938 89.6953 548.729 89.3698 543 89.5C537.271 89.6302 532.062 89.5651 527.375 89.3047C525.682 89.3047 524.51 88.5885 523.859 87.1562C523.208 85.5938 522.883 83.9661 522.883 82.2734C522.883 80.4505 523.339 78.8229 524.25 77.3906C525.161 75.9583 526.464 75.2422 528.156 75.2422ZM628.938 68.9922C628.547 68.0807 628.352 67.1693 628.352 66.2578C628.352 64.1745 629.068 62.4818 630.5 61.1797C632.062 59.7474 633.82 59.0312 635.773 59.0312C638.508 59.0312 640.721 60.3333 642.414 62.9375C644.237 65.5417 645.669 68.5365 646.711 71.9219C647.753 75.1771 648.469 78.3021 648.859 81.2969C649.25 84.1615 649.51 85.9193 649.641 86.5703C649.901 89.0443 650.096 91.6484 650.227 94.3828C650.357 96.987 650.422 99.7865 650.422 102.781C650.422 110.203 649.966 117.755 649.055 125.438C648.143 133.12 647.036 140.477 645.734 147.508C645.083 149.982 643.846 151.609 642.023 152.391C640.331 153.172 638.573 153.562 636.75 153.562C635.057 153.302 633.625 152.716 632.453 151.805C631.281 150.893 630.695 149.591 630.695 147.898C630.695 147.378 630.76 146.987 630.891 146.727C632.323 138.133 633.365 129.865 634.016 121.922C634.667 113.849 634.992 106.232 634.992 99.0703C634.992 96.3359 634.927 93.862 634.797 91.6484C634.667 89.3047 634.341 87.026 633.82 84.8125C633.43 82.4688 632.844 80.0599 632.062 77.5859C631.281 74.9818 630.24 72.1172 628.938 68.9922ZM764.875 103.562C769.432 107.208 774.055 109.617 778.742 110.789C783.43 111.961 788.573 113.003 794.172 113.914C796.255 114.174 797.622 115.021 798.273 116.453C799.055 117.885 799.445 119.318 799.445 120.75C799.055 122.573 798.208 124.005 796.906 125.047C795.734 125.958 793.846 126.414 791.242 126.414C785.773 126.414 780.044 125.372 774.055 123.289C768.195 121.076 763.052 118.602 758.625 115.867C757.714 117.43 756.346 119.448 754.523 121.922C752.831 124.266 750.943 126.609 748.859 128.953C746.776 131.167 744.628 133.12 742.414 134.812C740.331 136.505 738.378 137.352 736.555 137.352C734.471 137.352 732.648 136.635 731.086 135.203C729.654 133.641 728.938 132.013 728.938 130.32C728.938 128.758 729.589 127.326 730.891 126.023C738.312 119.643 743.977 112.352 747.883 104.148C751.919 95.8151 754.719 87.3516 756.281 78.7578C756.542 76.9349 757.128 75.6328 758.039 74.8516C759.081 74.0703 760.253 73.6797 761.555 73.6797C763.638 73.6797 765.656 74.4609 767.609 76.0234C769.693 77.4557 770.734 79.0182 770.734 80.7109C770.214 83.8359 769.497 87.3516 768.586 91.2578C767.805 95.1641 766.568 99.2656 764.875 103.562ZM840.656 68.9922C840.266 68.0807 840.07 67.1693 840.07 66.2578C840.07 64.1745 840.786 62.4818 842.219 61.1797C843.781 59.7474 845.539 59.0312 847.492 59.0312C850.227 59.0312 852.44 60.3333 854.133 62.9375C855.956 65.5417 857.388 68.5365 858.43 71.9219C859.471 75.1771 860.188 78.3021 860.578 81.2969C860.969 84.1615 861.229 85.9193 861.359 86.5703C861.62 89.0443 861.815 91.6484 861.945 94.3828C862.076 96.987 862.141 99.7865 862.141 102.781C862.141 110.203 861.685 117.755 860.773 125.438C859.862 133.12 858.755 140.477 857.453 147.508C856.802 149.982 855.565 151.609 853.742 152.391C852.049 153.172 850.292 153.562 848.469 153.562C846.776 153.302 845.344 152.716 844.172 151.805C843 150.893 842.414 149.591 842.414 147.898C842.414 147.378 842.479 146.987 842.609 146.727C844.042 138.133 845.083 129.865 845.734 121.922C846.385 113.849 846.711 106.232 846.711 99.0703C846.711 96.3359 846.646 93.862 846.516 91.6484C846.385 89.3047 846.06 87.026 845.539 84.8125C845.148 82.4688 844.562 80.0599 843.781 77.5859C843 74.9818 841.958 72.1172 840.656 68.9922ZM968.195 55.125C970.148 57.8594 972.297 60.6589 974.641 63.5234C977.115 66.388 979.654 68.9922 982.258 71.3359C984.862 73.6797 987.661 75.6328 990.656 77.1953C993.651 78.6276 996.711 79.3438 999.836 79.3438C1000.1 79.3438 1000.36 79.3438 1000.62 79.3438C1001.01 79.2135 1001.4 79.1484 1001.79 79.1484L1009.02 76.8047C1009.28 76.8047 1009.47 76.8047 1009.6 76.8047C1009.86 76.6745 1010.12 76.6094 1010.38 76.6094C1012.21 76.6094 1013.64 77.3906 1014.68 78.9531C1015.72 80.5156 1016.24 82.0781 1016.24 83.6406C1016.24 85.3333 1015.66 86.8307 1014.48 88.1328C1013.44 89.3047 1012.14 90.2812 1010.58 91.0625C1009.02 91.8438 1007.26 92.4297 1005.3 92.8203C1003.48 93.0807 1001.79 93.2109 1000.23 93.2109C996.32 93.2109 992.544 92.5599 988.898 91.2578C985.253 89.8255 981.672 88.0026 978.156 85.7891C974.771 83.4453 971.516 80.8411 968.391 77.9766C965.396 74.9818 962.596 71.9219 959.992 68.7969C957.518 72.1823 954.719 75.4375 951.594 78.5625C948.469 81.6875 945.018 84.487 941.242 86.9609C937.596 89.4349 933.625 91.4531 929.328 93.0156C925.161 94.4479 920.669 95.1641 915.852 95.1641C913.508 95.1641 911.75 94.513 910.578 93.2109C909.536 91.9089 909.016 90.4766 909.016 88.9141C909.016 87.4818 909.536 86.1146 910.578 84.8125C911.62 83.3802 913.052 82.5339 914.875 82.2734C920.734 81.6224 926.203 79.4089 931.281 75.6328C936.359 71.8568 940.852 67.4297 944.758 62.3516C948.794 57.2734 952.18 51.9349 954.914 46.3359C957.648 40.737 959.536 35.6589 960.578 31.1016C961.099 29.0182 961.88 27.5859 962.922 26.8047C963.964 26.0234 965.201 25.6328 966.633 25.6328C968.846 25.6328 970.93 26.349 972.883 27.7812C974.836 29.2135 975.812 30.7109 975.812 32.2734C975.422 35.138 974.576 38.5885 973.273 42.625C971.971 46.6615 970.279 50.8281 968.195 55.125ZM910.969 121.727C917.479 123.159 925.031 124.266 933.625 125.047C942.219 125.828 951.138 126.219 960.383 126.219C968.456 126.219 976.333 125.958 984.016 125.438C991.828 124.917 999.25 123.94 1006.28 122.508C1007.97 121.076 1009.67 120.034 1011.36 119.383C1013.18 118.732 1015.27 117.951 1017.61 117.039C1019.17 117.43 1020.54 118.602 1021.71 120.555C1023.01 122.378 1023.66 124.331 1023.66 126.414C1023.66 128.237 1023.27 129.865 1022.49 131.297C1021.71 132.729 1020.34 133.576 1018.39 133.836C1009.15 136.049 999.445 137.612 989.289 138.523C979.133 139.305 968.846 139.695 958.43 139.695C949.576 139.695 941.047 139.37 932.844 138.719C924.641 138.068 917.219 137.221 910.578 136.18C908.104 135.789 906.411 134.812 905.5 133.25C904.719 131.557 904.328 129.865 904.328 128.172C904.328 126.479 904.914 124.982 906.086 123.68C907.258 122.378 908.885 121.727 910.969 121.727ZM1057.84 35.3984C1060.45 35.6589 1064.42 35.8542 1069.76 35.9844C1075.23 36.1146 1081.09 36.1797 1087.34 36.1797H1116.83C1118.65 36.4401 1119.95 37.2865 1120.73 38.7188C1121.65 40.151 1122.1 41.6484 1122.1 43.2109C1122.1 45.2943 1121.58 46.8568 1120.54 47.8984C1119.5 48.8099 1117.93 49.4609 1115.85 49.8516C1113.9 50.2422 1111.49 50.4375 1108.62 50.4375C1105.89 50.3073 1102.77 50.2422 1099.25 50.2422C1095.6 50.2422 1091.96 50.2422 1088.31 50.2422C1084.8 50.2422 1081.35 50.1771 1077.96 50.0469C1077.96 51.4792 1077.96 52.9766 1077.96 54.5391C1077.96 55.9714 1078.03 57.4688 1078.16 59.0312C1082.97 59.4219 1088.05 59.6172 1093.39 59.6172C1098.73 59.6172 1103.81 59.6172 1108.62 59.6172C1110.45 59.8776 1111.82 60.724 1112.73 62.1562C1113.64 63.5885 1114.09 65.0859 1114.09 66.6484C1114.09 68.7318 1113.51 70.2943 1112.34 71.3359C1111.29 72.2474 1109.93 72.8984 1108.23 73.2891C1106.67 73.6797 1104.91 73.875 1102.96 73.875C1101.01 73.7448 1099.25 73.6797 1097.69 73.6797C1094.3 73.6797 1091.05 73.6146 1087.92 73.4844C1084.8 73.224 1081.67 72.9635 1078.55 72.7031C1078.55 75.1771 1078.61 77.4557 1078.74 79.5391C1078.87 81.6224 1079.07 83.4453 1079.33 85.0078C1082.58 85.6589 1086.68 86.1797 1091.63 86.5703C1096.71 86.9609 1101.72 87.1562 1106.67 87.1562C1108.62 87.1562 1110.51 87.0911 1112.34 86.9609C1114.29 86.7005 1116.18 86.5703 1118 86.5703C1119.69 86.5703 1121.06 87.2865 1122.1 88.7188C1123.27 90.151 1123.86 91.7786 1123.86 93.6016C1123.86 95.8151 1123.14 97.4427 1121.71 98.4844C1120.41 99.3958 1118.72 100.047 1116.63 100.438C1114.55 100.698 1112.27 100.828 1109.8 100.828C1107.45 100.698 1105.24 100.633 1103.16 100.633C1097.82 100.633 1092.8 100.633 1088.12 100.633C1083.56 100.503 1079.52 100.047 1076.01 99.2656C1072.62 98.4844 1069.89 97.1823 1067.8 95.3594C1065.72 93.5365 1064.61 90.8672 1064.48 87.3516L1063.31 69.3828C1063.05 65.737 1062.86 62.2865 1062.73 59.0312C1062.73 55.776 1062.66 52.651 1062.53 49.6562H1059.99C1056.74 49.6562 1054.39 48.9401 1052.96 47.5078C1051.53 46.0755 1050.81 44.3177 1050.81 42.2344C1050.81 40.5417 1051.4 38.9792 1052.57 37.5469C1053.87 36.1146 1055.63 35.3984 1057.84 35.3984ZM1143.78 27.9766C1143.26 27.0651 1143 26.0885 1143 25.0469C1143 22.8333 1144.04 21.0755 1146.12 19.7734C1148.21 18.3411 1150.16 17.625 1151.98 17.625C1154.07 17.625 1155.89 18.7969 1157.45 21.1406C1159.02 23.3542 1160.25 25.9583 1161.16 28.9531C1162.21 31.9479 1162.99 34.8776 1163.51 37.7422C1164.03 40.4766 1164.35 42.4297 1164.48 43.6016C1165.01 47.3776 1165.4 52.1302 1165.66 57.8594C1166.05 63.5885 1166.24 69.7083 1166.24 76.2188C1166.24 79.2135 1166.24 82.5339 1166.24 86.1797C1166.37 89.6953 1166.18 93.0156 1165.66 96.1406C1165.27 99.1354 1164.42 101.674 1163.12 103.758C1161.82 105.841 1159.8 106.883 1157.06 106.883C1155.24 106.883 1153.68 106.427 1152.38 105.516C1151.07 104.604 1150.42 103.237 1150.42 101.414C1150.42 96.5964 1150.55 91.9089 1150.81 87.3516C1151.07 82.6641 1151.2 78.1719 1151.2 73.875C1146.78 73.6146 1142.22 73.4844 1137.53 73.4844C1132.84 73.3542 1127.9 73.2891 1122.69 73.2891C1121.26 73.2891 1120.15 72.638 1119.37 71.3359C1118.72 69.9036 1118.39 68.3411 1118.39 66.6484C1118.39 65.0859 1118.78 63.5885 1119.56 62.1562C1120.34 60.724 1121.65 60.0078 1123.47 60.0078H1150.81C1150.42 56.8828 1150.1 54.0182 1149.84 51.4141C1149.58 48.6797 1149.18 46.0755 1148.66 43.6016C1148.27 40.9974 1147.69 38.4583 1146.91 35.9844C1146.12 33.5104 1145.08 30.8411 1143.78 27.9766ZM1180.5 27.9766C1179.85 27.0651 1179.52 25.9583 1179.52 24.6562C1179.52 22.8333 1180.37 21.2708 1182.06 19.9688C1183.76 18.6667 1185.58 18.0156 1187.53 18.0156C1190.01 18.0156 1192.02 19.3828 1193.59 22.1172C1195.15 24.8516 1196.32 28.237 1197.1 32.2734C1198.01 36.1797 1198.6 40.4766 1198.86 45.1641C1199.25 49.7214 1199.45 53.888 1199.45 57.6641C1199.45 64.6953 1199.18 71.9219 1198.66 79.3438C1198.14 86.6354 1197.56 93.9922 1196.91 101.414C1196.52 103.497 1195.6 105.06 1194.17 106.102C1192.87 107.143 1191.37 107.664 1189.68 107.664C1187.73 107.664 1185.9 107.143 1184.21 106.102C1182.52 105.06 1181.67 103.497 1181.67 101.414V100.633C1183.62 85.6589 1184.6 71.0755 1184.6 56.8828C1184.6 45.8151 1183.23 36.1797 1180.5 27.9766ZM1120.73 126.023C1120.73 124.201 1121.45 122.638 1122.88 121.336C1124.45 120.034 1126.4 118.992 1128.74 118.211C1131.22 117.299 1133.82 116.648 1136.55 116.258C1139.42 115.867 1142.15 115.607 1144.76 115.477C1147.49 115.216 1149.9 115.086 1151.98 115.086C1154.07 115.086 1155.57 115.086 1156.48 115.086C1159.86 115.086 1162.6 115.997 1164.68 117.82C1166.89 119.643 1168.13 122.117 1168.39 125.242C1168.91 130.711 1169.37 135.854 1169.76 140.672C1170.15 145.359 1170.34 150.503 1170.34 156.102C1170.34 158.445 1169.04 160.333 1166.44 161.766C1163.83 163.328 1160.64 164.565 1156.87 165.477C1153.22 166.518 1149.38 167.234 1145.34 167.625C1141.44 168.016 1138.05 168.211 1135.19 168.211C1131.28 168.211 1128.42 167.299 1126.59 165.477C1124.9 163.784 1123.66 161.635 1122.88 159.031C1122.23 156.427 1121.91 153.562 1121.91 150.438C1121.91 147.312 1121.71 144.383 1121.32 141.648C1121.19 139.044 1121.06 136.505 1120.93 134.031C1120.8 131.427 1120.73 128.758 1120.73 126.023ZM1135.77 130.516C1135.77 134.812 1135.84 138.914 1135.97 142.82C1136.23 146.727 1136.75 150.633 1137.53 154.539C1138.57 154.799 1139.48 154.93 1140.27 154.93C1141.05 154.93 1141.89 154.93 1142.8 154.93C1145.02 154.93 1146.97 154.669 1148.66 154.148C1150.49 153.758 1152.57 153.172 1154.91 152.391C1154.78 148.094 1154.59 144.122 1154.33 140.477C1154.2 136.831 1153.94 132.924 1153.55 128.758C1149.9 128.888 1146.71 129.148 1143.98 129.539C1141.37 129.799 1138.64 130.125 1135.77 130.516Z" fill="white"/>
</svg>
